<?xml version="1.0" encoding="UTF-8" standalone="no"?>
<svg
   version="1.1"
   width="241.4524mm"
   height="103.1494mm"
   viewBox="0.0000 0.0000 241.4524 103.1494"
   id="svg124"
   sodipodi:docname="base.svg"
   inkscape:version="1.3.2 (091e20ef0f, 2023-11-25)"
   xmlns:inkscape="http://www.inkscape.org/namespaces/inkscape"
   xmlns:sodipodi="http://sodipodi.sourceforge.net/DTD/sodipodi-0.dtd"
   xmlns="http://www.w3.org/2000/svg"
   xmlns:svg="http://www.w3.org/2000/svg">
  <defs
     id="defs124" />
  <sodipodi:namedview
     id="namedview124"
     pagecolor="#505050"
     bordercolor="#eeeeee"
     borderopacity="1"
     inkscape:showpageshadow="0"
     inkscape:pageopacity="0"
     inkscape:pagecheckerboard="0"
     inkscape:deskcolor="#505050"
     inkscape:document-units="mm"
     inkscape:zoom="0.70710678"
     inkscape:cx="284.25693"
     inkscape:cy="748.82608"
     inkscape:window-width="1080"
     inkscape:window-height="1920"
     inkscape:window-x="0"
     inkscape:window-y="0"
     inkscape:window-maximized="1"
     inkscape:current-layer="layer2" />
  <title
     id="title1">SVG Image created as niu-merged-Edge_Cuts.svg date 2024/02/04 15:59:30 </title>
  <desc
     id="desc1">Image generated by PCBNEW </desc>
  <g
     inkscape:groupmode="layer"
     id="layer1"
     inkscape:label="outline"
     style="display:inline">
    <path
       id="path128"
       style="fill:none;stroke:#b9bbb6;stroke-width:0.264583;stroke-opacity:1"
       d="M 120.73527,103.09707 V 82.806315 h -3.17345 l -18.915128,-1.987475 3.426668,-32.453833 18.66191,0.0052 V 13.197127 H 86.644324 L 68.294539,6.2461304 9.0035848,0.02480469 0.07286377,84.945719 19.633427,93.083724 115.43171,103.09707 Z"
       inkscape:label="left_half" />
    <path
       id="path129"
       style="fill:none;stroke:#b9bbb6;stroke-width:0.264583;stroke-opacity:1"
       d="m 232.47005,0.02428792 -59.29199,6.21977538 -18.3627,6.9530637 h -34.08009 v 35.173047 l 18.65312,0.0047 3.43803,32.451766 -18.91305,1.979724 h -3.1781 v 20.290756 h 5.30613 l 95.81172,-10.012314 19.54507,-8.143172 z"
       inkscape:label="right_half" />
  </g>
  <g
     inkscape:groupmode="layer"
     id="layer2"
     inkscape:label="hole_support"
     style="display:inline;fill:#ff0000">
    <path
       id="path127"
       style="display:inline;fill:#ff0000;stroke:#ffff00;stroke-width:0.259291;stroke-opacity:1"
       d="m 120.6686,46.73801 -20.16499,-0.0056 -3.702505,35.06464 20.436945,2.147259 h 3.43055 v -1.729961 h -3.1115 l -18.536823,-1.94722 3.358123,-31.804756 18.2902,0.0046 z" />
    <path
       id="path131"
       style="display:inline;fill:#ff0000;stroke:#ffff00;stroke-width:0.259291;stroke-opacity:1"
       d="m 120.6686,46.73801 v 1.728949 l 18.27854,0.0046 3.36927,31.80273 -18.5348,1.94013 h -3.11301 v 1.729961 h 3.43207 l 20.43491,-2.13865 -3.71465,-35.062614 z" />
  </g>
</svg>
