999
"DXF R12 Output" (www.mydxf.blogspot.com)
 0 
SECTION
 2 
HEADER
 9 
$ACADVER
 1 
AC1009
 9 
$EXTMIN
 10 
 0 
 20 
 0 
 9 
$EXTMAX
 10 
 8.5 
 20 
 11 
 0 
ENDSEC
 0 
SECTION
 2 
ENTITIES
0
LINE
8
outline
10
120.735270
20
0.051930
11
120.735270
21
20.342685
0
LINE
8
outline
10
120.735270
20
20.342685
11
117.561820
21
20.342685
0
LINE
8
outline
10
117.561820
20
20.342685
11
98.646692
21
22.330160
0
LINE
8
outline
10
98.646692
20
22.330160
11
102.073360
21
54.783993
0
LINE
8
outline
10
102.073360
20
54.783993
11
120.735270
21
54.778793
0
LINE
8
outline
10
120.735270
20
54.778793
11
120.735270
21
89.951873
0
LINE
8
outline
10
120.735270
20
89.951873
11
86.644324
21
89.951873
0
LINE
8
outline
10
86.644324
20
89.951873
11
68.294539
21
96.902870
0
LINE
8
outline
10
68.294539
20
96.902870
11
9.003585
21
103.124195
0
LINE
8
outline
10
9.003585
20
103.124195
11
0.072864
21
18.203281
0
LINE
8
outline
10
0.072864
20
18.203281
11
19.633427
21
10.065276
0
LINE
8
outline
10
19.633427
20
10.065276
11
115.431710
21
0.051930
0
LINE
8
outline
10
115.431710
20
0.051930
11
120.735270
21
0.051930
0
LINE
8
outline
10
232.470050
20
103.124712
11
173.178060
21
96.904937
0
LINE
8
outline
10
173.178060
20
96.904937
11
154.815360
21
89.951873
0
LINE
8
outline
10
154.815360
20
89.951873
11
120.735270
21
89.951873
0
LINE
8
outline
10
120.735270
20
89.951873
11
120.735270
21
54.778826
0
LINE
8
outline
10
120.735270
20
54.778826
11
139.388390
21
54.774126
0
LINE
8
outline
10
139.388390
20
54.774126
11
142.826420
21
22.322360
0
LINE
8
outline
10
142.826420
20
22.322360
11
123.913370
21
20.342636
0
LINE
8
outline
10
123.913370
20
20.342636
11
120.735270
21
20.342636
0
LINE
8
outline
10
120.735270
20
20.342636
11
120.735270
21
0.051880
0
LINE
8
outline
10
120.735270
20
0.051880
11
126.041400
21
0.051880
0
LINE
8
outline
10
126.041400
20
0.051880
11
221.853120
21
10.064194
0
LINE
8
outline
10
221.853120
20
10.064194
11
241.398190
21
18.207366
0
LINE
8
outline
10
241.398190
20
18.207366
11
232.470050
21
103.124712
0
LINE
8
hole_support
10
120.668600
20
56.790589
11
100.092080
21
56.796274
0
LINE
8
hole_support
10
100.092080
20
56.796274
11
96.314018
21
21.016029
0
LINE
8
hole_support
10
96.314018
20
21.016029
11
117.168040
21
18.824948
0
LINE
8
hole_support
10
117.168040
20
18.824948
11
120.668600
21
18.824948
0
LINE
8
hole_support
10
120.668600
20
18.824948
11
120.668600
21
20.590215
0
LINE
8
hole_support
10
120.668600
20
20.590215
11
117.493600
21
20.590215
0
LINE
8
hole_support
10
117.493600
20
20.590215
11
98.578479
21
22.577174
0
LINE
8
hole_support
10
98.578479
20
22.577174
11
102.005140
21
55.031007
0
LINE
8
hole_support
10
102.005140
20
55.031007
11
120.668600
21
55.026356
0
LINE
8
hole_support
10
120.668600
20
55.026356
11
120.668600
21
56.790589
0
LINE
8
hole_support
10
120.668600
20
56.790589
11
120.668600
21
56.790589
0
LINE
8
hole_support
10
120.668600
20
56.790589
11
120.668600
21
55.026356
0
LINE
8
hole_support
10
120.668600
20
55.026356
11
139.320180
21
55.021705
0
LINE
8
hole_support
10
139.320180
20
55.021705
11
142.758210
21
22.569939
0
LINE
8
hole_support
10
142.758210
20
22.569939
11
123.845150
21
20.590215
0
LINE
8
hole_support
10
123.845150
20
20.590215
11
120.668600
21
20.590215
0
LINE
8
hole_support
10
120.668600
20
20.590215
11
120.668600
21
18.824948
0
LINE
8
hole_support
10
120.668600
20
18.824948
11
124.170720
21
18.824948
0
LINE
8
hole_support
10
124.170720
20
18.824948
11
145.022670
21
21.007244
0
LINE
8
hole_support
10
145.022670
20
21.007244
11
141.232210
21
56.785422
0
LINE
8
hole_support
10
141.232210
20
56.785422
11
120.668600
21
56.790589
0
LINE
8
hole_support
10
120.668600
20
56.790589
11
120.668600
21
56.790589
 0 
ENDSEC
 0 
EOF