  0
SECTION
  2
HEADER
  9
$ACADVER
  1
AC1014
  9
$HANDSEED
  5
FFFF
  9
$INSUNITS
 70
     4
  9
$MEASUREMENT
 70
     1
  0
ENDSEC
  0
SECTION
  2
TABLES
  0
TABLE
  2
VPORT
  5
8
330
0
100
AcDbSymbolTable
 70
     4
  0
VPORT
  5
2E
330
8
100
AcDbSymbolTableRecord
100
AcDbViewportTableRecord
  2
*ACTIVE
 70
     0
 10
0.0
 20
0.0
 11
1.0
 21
1.0
 12
210.0
 22
148.5
 13
0.0
 23
0.0
 14
10.0
 24
10.0
 15
10.0
 25
10.0
 16
0.0
 26
0.0
 36
1.0
 17
0.0
 27
0.0
 37
0.0
 40
341.0
 41
1.24
 42
50.0
 43
0.0
 44
0.0
 50
0.0
 51
0.0
 71
     0
 72
   100
 73
     1
 74
     3
 75
     0
 76
     0
 77
     0
 78
     0
  0
ENDTAB
  0
TABLE
  2
LTYPE
  5
5
330
0
100
AcDbSymbolTable
 70
     1
  0
LTYPE
  5
14
330
5
100
AcDbSymbolTableRecord
100
AcDbLinetypeTableRecord
  2
BYBLOCK
 70
     0
  3

 72
    65
 73
     0
 40
0.0
  0
LTYPE
  5
15
330
5
100
AcDbSymbolTableRecord
100
AcDbLinetypeTableRecord
  2
BYLAYER
 70
     0
  3

 72
    65
 73
     0
 40
0.0
  0
LTYPE
  5
16
330
5
100
AcDbSymbolTableRecord
100
AcDbLinetypeTableRecord
  2
CONTINUOUS
 70
     0
  3
Solid line
 72
    65
 73
     0
 40
0.0
  0
ENDTAB
  0
TABLE
  2
LAYER
  5
2
100
AcDbSymbolTable
 70
1
  0
LAYER
  5
50
100
AcDbSymbolTableRecord
100
AcDbLayerTableRecord
  2
0
 70
0
  6
CONTINUOUS
  0
ENDTAB
  0
TABLE
  2
STYLE
  5
3
330
0
100
AcDbSymbolTable
 70
     1
  0
STYLE
  5
11
330
3
100
AcDbSymbolTableRecord
100
AcDbTextStyleTableRecord
  2
STANDARD
 70
     0
 40
0.0
 41
1.0
 50
0.0
 71
     0
 42
2.5
  3
txt
  4

  0
ENDTAB
  0
TABLE
  2
VIEW
  5
6
330
0
100
AcDbSymbolTable
 70
     0
  0
ENDTAB
  0
TABLE
  2
UCS
  5
7
330
0
100
AcDbSymbolTable
 70
     0
  0
ENDTAB
  0
TABLE
  2
APPID
  5
9
330
0
100
AcDbSymbolTable
 70
     2
  0
APPID
  5
12
330
9
100
AcDbSymbolTableRecord
100
AcDbRegAppTableRecord
  2
ACAD
 70
     0
  0
ENDTAB
  0
TABLE
  2
DIMSTYLE
  5
A
330
0
100
AcDbSymbolTable
 70
     1
  0
DIMSTYLE
105
27
330
A
100
AcDbSymbolTableRecord
100
AcDbDimStyleTableRecord
  2
ISO-25
 70
     0
  3

  4

  5

  6

  7

 40
1.0
 41
2.5
 42
0.625
 43
3.75
 44
1.25
 45
0.0
 46
0.0
 47
0.0
 48
0.0
140
2.5
141
2.5
142
0.0
143
0.03937007874016
144
1.0
145
0.0
146
1.0
147
0.625
 71
     0
 72
     0
 73
     0
 74
     0
 75
     0
 76
     0
 77
     1
 78
     8
170
     0
171
     3
172
     1
173
     0
174
     0
175
     0
176
     0
177
     0
178
     0
270
     2
271
     2
272
     2
273
     2
274
     3
340
11
275
     0
280
     0
281
     0
282
     0
283
     0
284
     8
285
     0
286
     0
287
     3
288
     0
  0
ENDTAB
  0
TABLE
  2
BLOCK_RECORD
  5
1
330
0
100
AcDbSymbolTable
 70
     1
  0
BLOCK_RECORD
  5
1F
330
1
100
AcDbSymbolTableRecord
100
AcDbBlockTableRecord
  2
*MODEL_SPACE
  0
BLOCK_RECORD
  5
1B
330
1
100
AcDbSymbolTableRecord
100
AcDbBlockTableRecord
  2
*PAPER_SPACE
  0
ENDTAB
  0
ENDSEC
  0
SECTION
  2
BLOCKS
  0
BLOCK
  5
20
330
1F
100
AcDbEntity
  8
0
100
AcDbBlockBegin
  2
*MODEL_SPACE
 70
     0
 10
0.0
 20
0.0
 30
0.0
  3
*MODEL_SPACE
  1

  0
ENDBLK
  5
21
330
1F
100
AcDbEntity
  8
0
100
AcDbBlockEnd
  0
BLOCK
  5
1C
330
1B
100
AcDbEntity
 67
     1
  8
0
100
AcDbBlockBegin
  2
*PAPER_SPACE
  1

  0
ENDBLK
  5
1D
330
1B
100
AcDbEntity
 67
     1
  8
0
100
AcDbBlockEnd
  0
ENDSEC
  0
SECTION
  2
ENTITIES
  0
LWPOLYLINE
  5
100
100
AcDbEntity
  8
0
 62
7
100
AcDbPolyline
 90
2
 70
0
 10
117.541500
 20
20.342300
 30
0.0
 10
123.927400
 20
20.342300
 30
0.0
  0
LWPOLYLINE
  5
101
100
AcDbEntity
  8
0
 62
7
100
AcDbPolyline
 90
2
 70
0
 10
46.793600
 20
99.169300
 30
0.0
 10
9.002000
 20
103.124400
 30
0.0
  0
LWPOLYLINE
  5
102
100
AcDbEntity
  8
0
 62
7
100
AcDbPolyline
 90
2
 70
0
 10
233.303400
 20
95.185200
 30
0.0
 10
241.393900
 20
18.209200
 30
0.0
  0
SPLINE
  5
103
100
AcDbEntity
  8
0
 62
7
100
AcDbSpline
 70
8
 71
3
 72
8
 73
4
 74
0
 40
0
 40
0
 40
0
 40
0
 40
1
 40
1
 40
1
 40
1
 10
142.167700
 20
85.994399
 30
0.0
 10
142.167700
 20
85.570053
 30
0.0
 10
141.999129
 20
85.163086
 30
0.0
 10
141.699071
 20
84.863028
 30
0.0
  0
SPLINE
  5
104
100
AcDbEntity
  8
0
 62
7
100
AcDbSpline
 70
8
 71
3
 72
8
 73
4
 74
0
 40
0
 40
0
 40
0
 40
0
 40
1
 40
1
 40
1
 40
1
 10
141.699071
 20
84.863028
 30
0.0
 10
141.399013
 20
84.562970
 30
0.0
 10
140.992046
 20
84.394399
 30
0.0
 10
140.567700
 20
84.394399
 30
0.0
  0
SPLINE
  5
105
100
AcDbEntity
  8
0
 62
7
100
AcDbSpline
 70
8
 71
3
 72
8
 73
4
 74
0
 40
0
 40
0
 40
0
 40
0
 40
1
 40
1
 40
1
 40
1
 10
140.567700
 20
84.394399
 30
0.0
 10
140.143354
 20
84.394399
 30
0.0
 10
139.736387
 20
84.562970
 30
0.0
 10
139.436329
 20
84.863028
 30
0.0
  0
SPLINE
  5
106
100
AcDbEntity
  8
0
 62
7
100
AcDbSpline
 70
8
 71
3
 72
8
 73
4
 74
0
 40
0
 40
0
 40
0
 40
0
 40
1
 40
1
 40
1
 40
1
 10
139.436329
 20
84.863028
 30
0.0
 10
139.136271
 20
85.163086
 30
0.0
 10
138.967700
 20
85.570053
 30
0.0
 10
138.967700
 20
85.994399
 30
0.0
  0
SPLINE
  5
107
100
AcDbEntity
  8
0
 62
7
100
AcDbSpline
 70
8
 71
3
 72
8
 73
4
 74
0
 40
0
 40
0
 40
0
 40
0
 40
1
 40
1
 40
1
 40
1
 10
138.967700
 20
85.994399
 30
0.0
 10
138.967700
 20
86.418745
 30
0.0
 10
139.136271
 20
86.825712
 30
0.0
 10
139.436329
 20
87.125770
 30
0.0
  0
SPLINE
  5
108
100
AcDbEntity
  8
0
 62
7
100
AcDbSpline
 70
8
 71
3
 72
8
 73
4
 74
0
 40
0
 40
0
 40
0
 40
0
 40
1
 40
1
 40
1
 40
1
 10
139.436329
 20
87.125770
 30
0.0
 10
139.736387
 20
87.425828
 30
0.0
 10
140.143354
 20
87.594399
 30
0.0
 10
140.567700
 20
87.594399
 30
0.0
  0
SPLINE
  5
109
100
AcDbEntity
  8
0
 62
7
100
AcDbSpline
 70
8
 71
3
 72
8
 73
4
 74
0
 40
0
 40
0
 40
0
 40
0
 40
1
 40
1
 40
1
 40
1
 10
140.567700
 20
87.594399
 30
0.0
 10
141.451356
 20
87.594399
 30
0.0
 10
142.167700
 20
86.878055
 30
0.0
 10
142.167700
 20
85.994399
 30
0.0
  0
LWPOLYLINE
  5
10a
100
AcDbEntity
  8
0
 62
7
100
AcDbPolyline
 90
2
 70
0
 10
221.852000
 20
10.064400
 30
0.0
 10
241.393900
 20
18.209200
 30
0.0
  0
LWPOLYLINE
  5
10b
100
AcDbEntity
  8
0
 62
7
100
AcDbPolyline
 90
1
 70
1
 10
142.167700
 20
85.994399
 30
0.0
  0
SPLINE
  5
10c
100
AcDbEntity
  8
0
 62
7
100
AcDbSpline
 70
8
 71
3
 72
8
 73
4
 74
0
 40
0
 40
0
 40
0
 40
0
 40
1
 40
1
 40
1
 40
1
 10
230.203390
 20
98.554400
 30
0.0
 10
230.203390
 20
98.130054
 30
0.0
 10
230.034819
 20
97.723088
 30
0.0
 10
229.734761
 20
97.423029
 30
0.0
  0
SPLINE
  5
10d
100
AcDbEntity
  8
0
 62
7
100
AcDbSpline
 70
8
 71
3
 72
8
 73
4
 74
0
 40
0
 40
0
 40
0
 40
0
 40
1
 40
1
 40
1
 40
1
 10
229.734761
 20
97.423029
 30
0.0
 10
229.434703
 20
97.122971
 30
0.0
 10
229.027736
 20
96.954400
 30
0.0
 10
228.603390
 20
96.954400
 30
0.0
  0
SPLINE
  5
10e
100
AcDbEntity
  8
0
 62
7
100
AcDbSpline
 70
8
 71
3
 72
8
 73
4
 74
0
 40
0
 40
0
 40
0
 40
0
 40
1
 40
1
 40
1
 40
1
 10
228.603390
 20
96.954400
 30
0.0
 10
228.179044
 20
96.954400
 30
0.0
 10
227.772077
 20
97.122971
 30
0.0
 10
227.472019
 20
97.423029
 30
0.0
  0
SPLINE
  5
10f
100
AcDbEntity
  8
0
 62
7
100
AcDbSpline
 70
8
 71
3
 72
8
 73
4
 74
0
 40
0
 40
0
 40
0
 40
0
 40
1
 40
1
 40
1
 40
1
 10
227.472019
 20
97.423029
 30
0.0
 10
227.171961
 20
97.723088
 30
0.0
 10
227.003390
 20
98.130054
 30
0.0
 10
227.003390
 20
98.554400
 30
0.0
  0
SPLINE
  5
110
100
AcDbEntity
  8
0
 62
7
100
AcDbSpline
 70
8
 71
3
 72
8
 73
4
 74
0
 40
0
 40
0
 40
0
 40
0
 40
1
 40
1
 40
1
 40
1
 10
227.003390
 20
98.554400
 30
0.0
 10
227.003390
 20
98.978747
 30
0.0
 10
227.171961
 20
99.385713
 30
0.0
 10
227.472019
 20
99.685771
 30
0.0
  0
SPLINE
  5
111
100
AcDbEntity
  8
0
 62
7
100
AcDbSpline
 70
8
 71
3
 72
8
 73
4
 74
0
 40
0
 40
0
 40
0
 40
0
 40
1
 40
1
 40
1
 40
1
 10
227.472019
 20
99.685771
 30
0.0
 10
227.772077
 20
99.985829
 30
0.0
 10
228.179044
 20
100.154400
 30
0.0
 10
228.603390
 20
100.154400
 30
0.0
  0
SPLINE
  5
112
100
AcDbEntity
  8
0
 62
7
100
AcDbSpline
 70
8
 71
3
 72
8
 73
4
 74
0
 40
0
 40
0
 40
0
 40
0
 40
1
 40
1
 40
1
 40
1
 10
228.603390
 20
100.154400
 30
0.0
 10
229.027736
 20
100.154400
 30
0.0
 10
229.434703
 20
99.985829
 30
0.0
 10
229.734761
 20
99.685771
 30
0.0
  0
SPLINE
  5
113
100
AcDbEntity
  8
0
 62
7
100
AcDbSpline
 70
8
 71
3
 72
8
 73
4
 74
0
 40
0
 40
0
 40
0
 40
0
 40
1
 40
1
 40
1
 40
1
 10
229.734761
 20
99.685771
 30
0.0
 10
230.034819
 20
99.385713
 30
0.0
 10
230.203390
 20
98.978747
 30
0.0
 10
230.203390
 20
98.554400
 30
0.0
  0
LWPOLYLINE
  5
114
100
AcDbEntity
  8
0
 62
7
100
AcDbPolyline
 90
2
 70
0
 10
93.927400
 20
2.311800
 30
0.0
 10
115.409100
 20
0.054000
 30
0.0
  0
LWPOLYLINE
  5
115
100
AcDbEntity
  8
0
 62
7
100
AcDbPolyline
 90
1
 70
1
 10
230.203390
 20
98.554400
 30
0.0
  0
SPLINE
  5
116
100
AcDbEntity
  8
0
 62
7
100
AcDbSpline
 70
8
 71
3
 72
8
 73
4
 74
0
 40
0
 40
0
 40
0
 40
0
 40
1
 40
1
 40
1
 40
1
 10
174.185500
 20
9.814401
 30
0.0
 10
174.185500
 20
9.390053
 30
0.0
 10
174.016928
 20
8.983085
 30
0.0
 10
173.716867
 20
8.683027
 30
0.0
  0
SPLINE
  5
117
100
AcDbEntity
  8
0
 62
7
100
AcDbSpline
 70
8
 71
3
 72
8
 73
4
 74
0
 40
0
 40
0
 40
0
 40
0
 40
1
 40
1
 40
1
 40
1
 10
173.716867
 20
8.683027
 30
0.0
 10
173.416807
 20
8.382968
 30
0.0
 10
173.009838
 20
8.214398
 30
0.0
 10
172.585490
 20
8.214401
 30
0.0
  0
SPLINE
  5
118
100
AcDbEntity
  8
0
 62
7
100
AcDbSpline
 70
8
 71
3
 72
8
 73
4
 74
0
 40
0
 40
0
 40
0
 40
0
 40
1
 40
1
 40
1
 40
1
 10
172.585490
 20
8.214401
 30
0.0
 10
172.161144
 20
8.214401
 30
0.0
 10
171.754177
 20
8.382972
 30
0.0
 10
171.454119
 20
8.683030
 30
0.0
  0
SPLINE
  5
119
100
AcDbEntity
  8
0
 62
7
100
AcDbSpline
 70
8
 71
3
 72
8
 73
4
 74
0
 40
0
 40
0
 40
0
 40
0
 40
1
 40
1
 40
1
 40
1
 10
171.454119
 20
8.683030
 30
0.0
 10
171.154061
 20
8.983088
 30
0.0
 10
170.985490
 20
9.390055
 30
0.0
 10
170.985490
 20
9.814401
 30
0.0
  0
SPLINE
  5
11a
100
AcDbEntity
  8
0
 62
7
100
AcDbSpline
 70
8
 71
3
 72
8
 73
4
 74
0
 40
0
 40
0
 40
0
 40
0
 40
1
 40
1
 40
1
 40
1
 10
170.985490
 20
9.814401
 30
0.0
 10
170.985490
 20
10.238747
 30
0.0
 10
171.154061
 20
10.645714
 30
0.0
 10
171.454119
 20
10.945772
 30
0.0
  0
SPLINE
  5
11b
100
AcDbEntity
  8
0
 62
7
100
AcDbSpline
 70
8
 71
3
 72
8
 73
4
 74
0
 40
0
 40
0
 40
0
 40
0
 40
1
 40
1
 40
1
 40
1
 10
171.454119
 20
10.945772
 30
0.0
 10
171.754177
 20
11.245830
 30
0.0
 10
172.161144
 20
11.414401
 30
0.0
 10
172.585490
 20
11.414401
 30
0.0
  0
SPLINE
  5
11c
100
AcDbEntity
  8
0
 62
7
100
AcDbSpline
 70
8
 71
3
 72
8
 73
4
 74
0
 40
0
 40
0
 40
0
 40
0
 40
1
 40
1
 40
1
 40
1
 10
172.585490
 20
11.414401
 30
0.0
 10
173.009838
 20
11.414404
 30
0.0
 10
173.416807
 20
11.245834
 30
0.0
 10
173.716867
 20
10.945775
 30
0.0
  0
SPLINE
  5
11d
100
AcDbEntity
  8
0
 62
7
100
AcDbSpline
 70
8
 71
3
 72
8
 73
4
 74
0
 40
0
 40
0
 40
0
 40
0
 40
1
 40
1
 40
1
 40
1
 10
173.716867
 20
10.945775
 30
0.0
 10
174.016928
 20
10.645717
 30
0.0
 10
174.185500
 20
10.238749
 30
0.0
 10
174.185500
 20
9.814401
 30
0.0
  0
LWPOLYLINE
  5
11e
100
AcDbEntity
  8
0
 62
7
100
AcDbPolyline
 90
2
 70
0
 10
173.193600
 20
96.911500
 30
0.0
 10
154.820400
 20
89.952800
 30
0.0
  0
LWPOLYLINE
  5
11f
100
AcDbEntity
  8
0
 62
7
100
AcDbPolyline
 90
1
 70
1
 10
174.185500
 20
9.814401
 30
0.0
  0
SPLINE
  5
120
100
AcDbEntity
  8
0
 62
7
100
AcDbSpline
 70
8
 71
3
 72
8
 73
4
 74
0
 40
0
 40
0
 40
0
 40
0
 40
1
 40
1
 40
1
 40
1
 10
218.768300
 20
14.104402
 30
0.0
 10
218.768300
 20
13.680056
 30
0.0
 10
218.599729
 20
13.273089
 30
0.0
 10
218.299671
 20
12.973031
 30
0.0
  0
SPLINE
  5
121
100
AcDbEntity
  8
0
 62
7
100
AcDbSpline
 70
8
 71
3
 72
8
 73
4
 74
0
 40
0
 40
0
 40
0
 40
0
 40
1
 40
1
 40
1
 40
1
 10
218.299671
 20
12.973031
 30
0.0
 10
217.999613
 20
12.672973
 30
0.0
 10
217.592646
 20
12.504402
 30
0.0
 10
217.168300
 20
12.504402
 30
0.0
  0
SPLINE
  5
122
100
AcDbEntity
  8
0
 62
7
100
AcDbSpline
 70
8
 71
3
 72
8
 73
4
 74
0
 40
0
 40
0
 40
0
 40
0
 40
1
 40
1
 40
1
 40
1
 10
217.168300
 20
12.504402
 30
0.0
 10
216.743954
 20
12.504402
 30
0.0
 10
216.336987
 20
12.672973
 30
0.0
 10
216.036929
 20
12.973031
 30
0.0
  0
SPLINE
  5
123
100
AcDbEntity
  8
0
 62
7
100
AcDbSpline
 70
8
 71
3
 72
8
 73
4
 74
0
 40
0
 40
0
 40
0
 40
0
 40
1
 40
1
 40
1
 40
1
 10
216.036929
 20
12.973031
 30
0.0
 10
215.736871
 20
13.273089
 30
0.0
 10
215.568300
 20
13.680056
 30
0.0
 10
215.568300
 20
14.104402
 30
0.0
  0
SPLINE
  5
124
100
AcDbEntity
  8
0
 62
7
100
AcDbSpline
 70
8
 71
3
 72
8
 73
4
 74
0
 40
0
 40
0
 40
0
 40
0
 40
1
 40
1
 40
1
 40
1
 10
215.568300
 20
14.104402
 30
0.0
 10
215.568300
 20
14.528748
 30
0.0
 10
215.736871
 20
14.935715
 30
0.0
 10
216.036929
 20
15.235773
 30
0.0
  0
SPLINE
  5
125
100
AcDbEntity
  8
0
 62
7
100
AcDbSpline
 70
8
 71
3
 72
8
 73
4
 74
0
 40
0
 40
0
 40
0
 40
0
 40
1
 40
1
 40
1
 40
1
 10
216.036929
 20
15.235773
 30
0.0
 10
216.336987
 20
15.535831
 30
0.0
 10
216.743954
 20
15.704402
 30
0.0
 10
217.168300
 20
15.704402
 30
0.0
  0
SPLINE
  5
126
100
AcDbEntity
  8
0
 62
7
100
AcDbSpline
 70
8
 71
3
 72
8
 73
4
 74
0
 40
0
 40
0
 40
0
 40
0
 40
1
 40
1
 40
1
 40
1
 10
217.168300
 20
15.704402
 30
0.0
 10
217.592646
 20
15.704402
 30
0.0
 10
217.999613
 20
15.535831
 30
0.0
 10
218.299671
 20
15.235773
 30
0.0
  0
SPLINE
  5
127
100
AcDbEntity
  8
0
 62
7
100
AcDbSpline
 70
8
 71
3
 72
8
 73
4
 74
0
 40
0
 40
0
 40
0
 40
0
 40
1
 40
1
 40
1
 40
1
 10
218.299671
 20
15.235773
 30
0.0
 10
218.599729
 20
14.935715
 30
0.0
 10
218.768300
 20
14.528748
 30
0.0
 10
218.768300
 20
14.104402
 30
0.0
  0
LWPOLYLINE
  5
128
100
AcDbEntity
  8
0
 62
7
100
AcDbPolyline
 90
2
 70
0
 10
117.541500
 20
20.342300
 30
0.0
 10
98.645500
 20
22.328300
 30
0.0
  0
LWPOLYLINE
  5
129
100
AcDbEntity
  8
0
 62
7
100
AcDbPolyline
 90
1
 70
1
 10
218.768300
 20
14.104402
 30
0.0
  0
LWPOLYLINE
  5
12a
100
AcDbEntity
  8
0
 62
7
100
AcDbPolyline
 90
2
 70
0
 10
0.075000
 20
18.209200
 30
0.0
 10
19.632000
 20
10.064400
 30
0.0
  0
LWPOLYLINE
  5
12b
100
AcDbEntity
  8
0
 62
7
100
AcDbPolyline
 90
2
 70
0
 10
0.075000
 20
18.209200
 30
0.0
 10
8.165500
 20
95.185200
 30
0.0
  0
SPLINE
  5
12c
100
AcDbEntity
  8
0
 62
7
100
AcDbSpline
 70
8
 71
3
 72
8
 73
4
 74
0
 40
0
 40
0
 40
0
 40
0
 40
1
 40
1
 40
1
 40
1
 10
14.465500
 20
98.554400
 30
0.0
 10
14.465500
 20
98.130054
 30
0.0
 10
14.296929
 20
97.723088
 30
0.0
 10
13.996871
 20
97.423029
 30
0.0
  0
SPLINE
  5
12d
100
AcDbEntity
  8
0
 62
7
100
AcDbSpline
 70
8
 71
3
 72
8
 73
4
 74
0
 40
0
 40
0
 40
0
 40
0
 40
1
 40
1
 40
1
 40
1
 10
13.996871
 20
97.423029
 30
0.0
 10
13.696813
 20
97.122971
 30
0.0
 10
13.289846
 20
96.954400
 30
0.0
 10
12.865500
 20
96.954400
 30
0.0
  0
SPLINE
  5
12e
100
AcDbEntity
  8
0
 62
7
100
AcDbSpline
 70
8
 71
3
 72
8
 73
4
 74
0
 40
0
 40
0
 40
0
 40
0
 40
1
 40
1
 40
1
 40
1
 10
12.865500
 20
96.954400
 30
0.0
 10
12.441154
 20
96.954400
 30
0.0
 10
12.034187
 20
97.122971
 30
0.0
 10
11.734129
 20
97.423029
 30
0.0
  0
SPLINE
  5
12f
100
AcDbEntity
  8
0
 62
7
100
AcDbSpline
 70
8
 71
3
 72
8
 73
4
 74
0
 40
0
 40
0
 40
0
 40
0
 40
1
 40
1
 40
1
 40
1
 10
11.734129
 20
97.423029
 30
0.0
 10
11.434071
 20
97.723088
 30
0.0
 10
11.265500
 20
98.130054
 30
0.0
 10
11.265500
 20
98.554400
 30
0.0
  0
SPLINE
  5
130
100
AcDbEntity
  8
0
 62
7
100
AcDbSpline
 70
8
 71
3
 72
8
 73
4
 74
0
 40
0
 40
0
 40
0
 40
0
 40
1
 40
1
 40
1
 40
1
 10
11.265500
 20
98.554400
 30
0.0
 10
11.265500
 20
98.978747
 30
0.0
 10
11.434071
 20
99.385713
 30
0.0
 10
11.734129
 20
99.685771
 30
0.0
  0
SPLINE
  5
131
100
AcDbEntity
  8
0
 62
7
100
AcDbSpline
 70
8
 71
3
 72
8
 73
4
 74
0
 40
0
 40
0
 40
0
 40
0
 40
1
 40
1
 40
1
 40
1
 10
11.734129
 20
99.685771
 30
0.0
 10
12.034187
 20
99.985829
 30
0.0
 10
12.441154
 20
100.154400
 30
0.0
 10
12.865500
 20
100.154400
 30
0.0
  0
SPLINE
  5
132
100
AcDbEntity
  8
0
 62
7
100
AcDbSpline
 70
8
 71
3
 72
8
 73
4
 74
0
 40
0
 40
0
 40
0
 40
0
 40
1
 40
1
 40
1
 40
1
 10
12.865500
 20
100.154400
 30
0.0
 10
13.289846
 20
100.154400
 30
0.0
 10
13.696813
 20
99.985829
 30
0.0
 10
13.996871
 20
99.685771
 30
0.0
  0
SPLINE
  5
133
100
AcDbEntity
  8
0
 62
7
100
AcDbSpline
 70
8
 71
3
 72
8
 73
4
 74
0
 40
0
 40
0
 40
0
 40
0
 40
1
 40
1
 40
1
 40
1
 10
13.996871
 20
99.685771
 30
0.0
 10
14.296929
 20
99.385713
 30
0.0
 10
14.465500
 20
98.978747
 30
0.0
 10
14.465500
 20
98.554400
 30
0.0
  0
LWPOLYLINE
  5
134
100
AcDbEntity
  8
0
 62
7
100
AcDbPolyline
 90
2
 70
0
 10
93.927400
 20
2.311800
 30
0.0
 10
19.632000
 20
10.064400
 30
0.0
  0
LWPOLYLINE
  5
135
100
AcDbEntity
  8
0
 62
7
100
AcDbPolyline
 90
1
 70
1
 10
14.465500
 20
98.554400
 30
0.0
  0
LWPOLYLINE
  5
136
100
AcDbEntity
  8
0
 62
7
100
AcDbPolyline
 90
2
 70
0
 10
142.823300
 20
22.328300
 30
0.0
 10
139.392000
 20
54.774400
 30
0.0
  0
LWPOLYLINE
  5
137
100
AcDbEntity
  8
0
 62
7
100
AcDbPolyline
 90
2
 70
0
 10
102.072000
 20
54.784400
 30
0.0
 10
139.392000
 20
54.774400
 30
0.0
  0
LWPOLYLINE
  5
138
100
AcDbEntity
  8
0
 62
7
100
AcDbPolyline
 90
2
 70
0
 10
142.823300
 20
22.328300
 30
0.0
 10
123.927400
 20
20.342300
 30
0.0
  0
LWPOLYLINE
  5
139
100
AcDbEntity
  8
0
 62
7
100
AcDbPolyline
 90
2
 70
0
 10
98.645500
 20
22.328300
 30
0.0
 10
102.072000
 20
54.784400
 30
0.0
  0
LWPOLYLINE
  5
13a
100
AcDbEntity
  8
0
 62
7
100
AcDbPolyline
 90
2
 70
0
 10
8.165500
 20
95.185200
 30
0.0
 10
9.002000
 20
103.124400
 30
0.0
  0
LWPOLYLINE
  5
13b
100
AcDbEntity
  8
0
 62
7
100
AcDbPolyline
 90
2
 70
0
 10
126.059800
 20
0.054000
 30
0.0
 10
147.541500
 20
2.311800
 30
0.0
  0
SPLINE
  5
13c
100
AcDbEntity
  8
0
 62
7
100
AcDbSpline
 70
8
 71
3
 72
8
 73
4
 74
0
 40
0
 40
0
 40
0
 40
0
 40
1
 40
1
 40
1
 40
1
 10
102.501200
 20
85.994399
 30
0.0
 10
102.501200
 20
85.110743
 30
0.0
 10
101.784856
 20
84.394399
 30
0.0
 10
100.901200
 20
84.394399
 30
0.0
  0
SPLINE
  5
13d
100
AcDbEntity
  8
0
 62
7
100
AcDbSpline
 70
8
 71
3
 72
8
 73
4
 74
0
 40
0
 40
0
 40
0
 40
0
 40
1
 40
1
 40
1
 40
1
 10
100.901200
 20
84.394399
 30
0.0
 10
100.476853
 20
84.394399
 30
0.0
 10
100.069887
 20
84.562970
 30
0.0
 10
99.769829
 20
84.863028
 30
0.0
  0
SPLINE
  5
13e
100
AcDbEntity
  8
0
 62
7
100
AcDbSpline
 70
8
 71
3
 72
8
 73
4
 74
0
 40
0
 40
0
 40
0
 40
0
 40
1
 40
1
 40
1
 40
1
 10
99.769829
 20
84.863028
 30
0.0
 10
99.469770
 20
85.163086
 30
0.0
 10
99.301199
 20
85.570052
 30
0.0
 10
99.301199
 20
85.994399
 30
0.0
  0
SPLINE
  5
13f
100
AcDbEntity
  8
0
 62
7
100
AcDbSpline
 70
8
 71
3
 72
8
 73
4
 74
0
 40
0
 40
0
 40
0
 40
0
 40
1
 40
1
 40
1
 40
1
 10
99.301199
 20
85.994399
 30
0.0
 10
99.301199
 20
86.418746
 30
0.0
 10
99.469770
 20
86.825712
 30
0.0
 10
99.769829
 20
87.125770
 30
0.0
  0
SPLINE
  5
140
100
AcDbEntity
  8
0
 62
7
100
AcDbSpline
 70
8
 71
3
 72
8
 73
4
 74
0
 40
0
 40
0
 40
0
 40
0
 40
1
 40
1
 40
1
 40
1
 10
99.769829
 20
87.125770
 30
0.0
 10
100.069887
 20
87.425828
 30
0.0
 10
100.476853
 20
87.594399
 30
0.0
 10
100.901200
 20
87.594399
 30
0.0
  0
SPLINE
  5
141
100
AcDbEntity
  8
0
 62
7
100
AcDbSpline
 70
8
 71
3
 72
8
 73
4
 74
0
 40
0
 40
0
 40
0
 40
0
 40
1
 40
1
 40
1
 40
1
 10
100.901200
 20
87.594399
 30
0.0
 10
101.784856
 20
87.594399
 30
0.0
 10
102.501200
 20
86.878055
 30
0.0
 10
102.501200
 20
85.994399
 30
0.0
  0
LWPOLYLINE
  5
142
100
AcDbEntity
  8
0
 62
7
100
AcDbPolyline
 90
2
 70
0
 10
194.675300
 20
99.169300
 30
0.0
 10
173.193600
 20
96.911500
 30
0.0
  0
LWPOLYLINE
  5
143
100
AcDbEntity
  8
0
 62
7
100
AcDbPolyline
 90
1
 70
1
 10
102.501200
 20
85.994399
 30
0.0
  0
LWPOLYLINE
  5
144
100
AcDbEntity
  8
0
 62
7
100
AcDbPolyline
 90
2
 70
0
 10
68.275200
 20
96.911500
 30
0.0
 10
46.793600
 20
99.169300
 30
0.0
  0
LWPOLYLINE
  5
145
100
AcDbEntity
  8
0
 62
7
100
AcDbPolyline
 90
2
 70
0
 10
194.675300
 20
99.169300
 30
0.0
 10
232.472000
 20
103.124400
 30
0.0
  0
LWPOLYLINE
  5
146
100
AcDbEntity
  8
0
 62
7
100
AcDbPolyline
 90
2
 70
0
 10
68.275200
 20
96.911500
 30
0.0
 10
86.648500
 20
89.952800
 30
0.0
  0
SPLINE
  5
147
100
AcDbEntity
  8
0
 62
7
100
AcDbSpline
 70
8
 71
3
 72
8
 73
4
 74
0
 40
0
 40
0
 40
0
 40
0
 40
1
 40
1
 40
1
 40
1
 10
70.483400
 20
9.814401
 30
0.0
 10
70.483400
 20
9.390055
 30
0.0
 10
70.314829
 20
8.983088
 30
0.0
 10
70.014771
 20
8.683030
 30
0.0
  0
SPLINE
  5
148
100
AcDbEntity
  8
0
 62
7
100
AcDbSpline
 70
8
 71
3
 72
8
 73
4
 74
0
 40
0
 40
0
 40
0
 40
0
 40
1
 40
1
 40
1
 40
1
 10
70.014771
 20
8.683030
 30
0.0
 10
69.714713
 20
8.382972
 30
0.0
 10
69.307746
 20
8.214401
 30
0.0
 10
68.883400
 20
8.214401
 30
0.0
  0
SPLINE
  5
149
100
AcDbEntity
  8
0
 62
7
100
AcDbSpline
 70
8
 71
3
 72
8
 73
4
 74
0
 40
0
 40
0
 40
0
 40
0
 40
1
 40
1
 40
1
 40
1
 10
68.883400
 20
8.214401
 30
0.0
 10
68.459054
 20
8.214401
 30
0.0
 10
68.052087
 20
8.382972
 30
0.0
 10
67.752029
 20
8.683030
 30
0.0
  0
SPLINE
  5
14a
100
AcDbEntity
  8
0
 62
7
100
AcDbSpline
 70
8
 71
3
 72
8
 73
4
 74
0
 40
0
 40
0
 40
0
 40
0
 40
1
 40
1
 40
1
 40
1
 10
67.752029
 20
8.683030
 30
0.0
 10
67.451971
 20
8.983088
 30
0.0
 10
67.283400
 20
9.390055
 30
0.0
 10
67.283400
 20
9.814401
 30
0.0
  0
SPLINE
  5
14b
100
AcDbEntity
  8
0
 62
7
100
AcDbSpline
 70
8
 71
3
 72
8
 73
4
 74
0
 40
0
 40
0
 40
0
 40
0
 40
1
 40
1
 40
1
 40
1
 10
67.283400
 20
9.814401
 30
0.0
 10
67.283400
 20
10.238747
 30
0.0
 10
67.451971
 20
10.645714
 30
0.0
 10
67.752029
 20
10.945772
 30
0.0
  0
SPLINE
  5
14c
100
AcDbEntity
  8
0
 62
7
100
AcDbSpline
 70
8
 71
3
 72
8
 73
4
 74
0
 40
0
 40
0
 40
0
 40
0
 40
1
 40
1
 40
1
 40
1
 10
67.752029
 20
10.945772
 30
0.0
 10
68.052087
 20
11.245830
 30
0.0
 10
68.459054
 20
11.414401
 30
0.0
 10
68.883400
 20
11.414401
 30
0.0
  0
SPLINE
  5
14d
100
AcDbEntity
  8
0
 62
7
100
AcDbSpline
 70
8
 71
3
 72
8
 73
4
 74
0
 40
0
 40
0
 40
0
 40
0
 40
1
 40
1
 40
1
 40
1
 10
68.883400
 20
11.414401
 30
0.0
 10
69.307746
 20
11.414401
 30
0.0
 10
69.714713
 20
11.245830
 30
0.0
 10
70.014771
 20
10.945772
 30
0.0
  0
SPLINE
  5
14e
100
AcDbEntity
  8
0
 62
7
100
AcDbSpline
 70
8
 71
3
 72
8
 73
4
 74
0
 40
0
 40
0
 40
0
 40
0
 40
1
 40
1
 40
1
 40
1
 10
70.014771
 20
10.945772
 30
0.0
 10
70.314829
 20
10.645714
 30
0.0
 10
70.483400
 20
10.238747
 30
0.0
 10
70.483400
 20
9.814401
 30
0.0
  0
LWPOLYLINE
  5
14f
100
AcDbEntity
  8
0
 62
7
100
AcDbPolyline
 90
2
 70
0
 10
115.409100
 20
0.054000
 30
0.0
 10
126.059800
 20
0.054000
 30
0.0
  0
LWPOLYLINE
  5
150
100
AcDbEntity
  8
0
 62
7
100
AcDbPolyline
 90
1
 70
1
 10
70.483400
 20
9.814401
 30
0.0
  0
LWPOLYLINE
  5
151
100
AcDbEntity
  8
0
 62
7
100
AcDbPolyline
 90
2
 70
0
 10
147.541500
 20
2.311800
 30
0.0
 10
221.852000
 20
10.064400
 30
0.0
  0
SPLINE
  5
152
100
AcDbEntity
  8
0
 62
7
100
AcDbSpline
 70
8
 71
3
 72
8
 73
4
 74
0
 40
0
 40
0
 40
0
 40
0
 40
1
 40
1
 40
1
 40
1
 10
25.900600
 20
14.104402
 30
0.0
 10
25.900600
 20
13.680056
 30
0.0
 10
25.732029
 20
13.273089
 30
0.0
 10
25.431971
 20
12.973031
 30
0.0
  0
SPLINE
  5
153
100
AcDbEntity
  8
0
 62
7
100
AcDbSpline
 70
8
 71
3
 72
8
 73
4
 74
0
 40
0
 40
0
 40
0
 40
0
 40
1
 40
1
 40
1
 40
1
 10
25.431971
 20
12.973031
 30
0.0
 10
25.131913
 20
12.672973
 30
0.0
 10
24.724946
 20
12.504402
 30
0.0
 10
24.300600
 20
12.504402
 30
0.0
  0
SPLINE
  5
154
100
AcDbEntity
  8
0
 62
7
100
AcDbSpline
 70
8
 71
3
 72
8
 73
4
 74
0
 40
0
 40
0
 40
0
 40
0
 40
1
 40
1
 40
1
 40
1
 10
24.300600
 20
12.504402
 30
0.0
 10
23.876254
 20
12.504402
 30
0.0
 10
23.469287
 20
12.672973
 30
0.0
 10
23.169229
 20
12.973031
 30
0.0
  0
SPLINE
  5
155
100
AcDbEntity
  8
0
 62
7
100
AcDbSpline
 70
8
 71
3
 72
8
 73
4
 74
0
 40
0
 40
0
 40
0
 40
0
 40
1
 40
1
 40
1
 40
1
 10
23.169229
 20
12.973031
 30
0.0
 10
22.869171
 20
13.273089
 30
0.0
 10
22.700600
 20
13.680056
 30
0.0
 10
22.700600
 20
14.104402
 30
0.0
  0
SPLINE
  5
156
100
AcDbEntity
  8
0
 62
7
100
AcDbSpline
 70
8
 71
3
 72
8
 73
4
 74
0
 40
0
 40
0
 40
0
 40
0
 40
1
 40
1
 40
1
 40
1
 10
22.700600
 20
14.104402
 30
0.0
 10
22.700600
 20
14.528748
 30
0.0
 10
22.869171
 20
14.935715
 30
0.0
 10
23.169229
 20
15.235773
 30
0.0
  0
SPLINE
  5
157
100
AcDbEntity
  8
0
 62
7
100
AcDbSpline
 70
8
 71
3
 72
8
 73
4
 74
0
 40
0
 40
0
 40
0
 40
0
 40
1
 40
1
 40
1
 40
1
 10
23.169229
 20
15.235773
 30
0.0
 10
23.469287
 20
15.535831
 30
0.0
 10
23.876254
 20
15.704402
 30
0.0
 10
24.300600
 20
15.704402
 30
0.0
  0
SPLINE
  5
158
100
AcDbEntity
  8
0
 62
7
100
AcDbSpline
 70
8
 71
3
 72
8
 73
4
 74
0
 40
0
 40
0
 40
0
 40
0
 40
1
 40
1
 40
1
 40
1
 10
24.300600
 20
15.704402
 30
0.0
 10
24.724946
 20
15.704402
 30
0.0
 10
25.131913
 20
15.535831
 30
0.0
 10
25.431971
 20
15.235773
 30
0.0
  0
SPLINE
  5
159
100
AcDbEntity
  8
0
 62
7
100
AcDbSpline
 70
8
 71
3
 72
8
 73
4
 74
0
 40
0
 40
0
 40
0
 40
0
 40
1
 40
1
 40
1
 40
1
 10
25.431971
 20
15.235773
 30
0.0
 10
25.732029
 20
14.935715
 30
0.0
 10
25.900600
 20
14.528748
 30
0.0
 10
25.900600
 20
14.104402
 30
0.0
  0
LWPOLYLINE
  5
15a
100
AcDbEntity
  8
0
 62
7
100
AcDbPolyline
 90
2
 70
0
 10
86.648500
 20
89.952800
 30
0.0
 10
154.820400
 20
89.952800
 30
0.0
  0
LWPOLYLINE
  5
15b
100
AcDbEntity
  8
0
 62
7
100
AcDbPolyline
 90
1
 70
1
 10
25.900600
 20
14.104402
 30
0.0
  0
LWPOLYLINE
  5
15c
100
AcDbEntity
  8
0
 62
7
100
AcDbPolyline
 90
2
 70
0
 10
233.303400
 20
95.185200
 30
0.0
 10
232.472000
 20
103.124400
 30
0.0
  0
ENDSEC
  0
SECTION
  2
OBJECTS
  0
DICTIONARY
  5
C
330
0
100
AcDbDictionary
  3
ACAD_GROUP
350
D
  3
ACAD_MLINESTYLE
350
17
  0
DICTIONARY
  5
D
330
C
100
AcDbDictionary
  0
DICTIONARY
  5
1A
330
C
100
AcDbDictionary
  0
DICTIONARY
  5
17
330
C
100
AcDbDictionary
  3
STANDARD
350
18
  0
DICTIONARY
  5
19
330
C
100
AcDbDictionary
  0
ENDSEC
  0
EOF
